<svg width="40" height="40" viewBox="0 0 40 40" fill="none" xmlns="http://www.w3.org/2000/svg">
<g clip-path="url(#clip0_64_873)">
<path d="M20.2533 11.4933C18.6733 11.4933 16.2283 9.69667 13.6533 9.76C10.2533 9.805 7.13667 11.7317 5.385 14.7833C1.85667 20.9083 4.475 29.955 7.91667 34.9333C9.605 37.3567 11.5967 40.0833 14.2367 39.9983C16.77 39.89 17.72 38.3533 20.795 38.3533C23.8467 38.3533 24.7117 39.9983 27.395 39.9333C30.1233 39.89 31.855 37.4667 33.5217 35.02C35.4483 32.2067 36.2483 29.4783 36.2917 29.3283C36.2267 29.3067 30.9883 27.2933 30.925 21.2333C30.8817 16.1667 35.0583 13.7433 35.2533 13.635C32.8717 10.1517 29.215 9.76167 27.9367 9.675C24.6033 9.415 21.8117 11.4933 20.2533 11.4933ZM25.8833 6.38333C27.2883 4.69667 28.2167 2.33833 27.9583 0C25.9467 0.0866667 23.5217 1.34167 22.0717 3.03C20.7717 4.52333 19.6483 6.92667 19.95 9.22C22.18 9.39333 24.475 8.07333 25.8817 6.385" fill="#09090B"/>
</g>
<defs>
<clipPath id="clip0_64_873">
<rect width="40" height="40" fill="white"/>
</clipPath>
</defs>
</svg>
