<svg width="40" height="40" viewBox="0 0 40 40" fill="none" xmlns="http://www.w3.org/2000/svg">
<g clip-path="url(#clip0_64_865)">
<path d="M20.8 0.5C26.5109 0.5 30.648 2.65905 33.7739 5.56403L30.6298 8.70811C28.2542 6.59522 25.0632 4.98833 20.8 4.98833C12.4698 4.98833 5.96666 11.7096 5.96666 20.0217C5.96666 28.3337 12.4698 35.055 20.8 35.055C26.1623 35.055 29.2597 32.8907 31.2419 30.9086L31.2441 30.9063C32.8968 29.2324 33.9524 26.8755 34.3625 23.7313L34.4361 23.1667H33.8667H21.3V18.7H38.7836C38.9236 19.5513 38.9883 20.5475 38.9883 21.6217C38.9883 25.6384 37.8727 30.5752 34.4014 34.0464L34.4014 34.0464L34.3948 34.0532C30.9857 37.5934 26.629 39.5 20.8 39.5C10.0451 39.5 1.01166 30.7363 1.01166 20C1.01166 9.26372 10.0451 0.5 20.8 0.5Z" fill="#09090B" stroke="#09090B"/>
</g>
<defs>
<clipPath id="clip0_64_865">
<rect width="40" height="40" fill="white"/>
</clipPath>
</defs>
</svg>
